<svg id="lightbulb" height="512" viewBox="0 0 60 58" width="512" xmlns="http://www.w3.org/2000/svg"><g id="Page-1" fill="none" fill-rule="evenodd"><g id="077---Strategy-Idea" fill-rule="nonzero"><path id="Shape" d="m22 49h-4c-.5522847 0-1-.4477153-1-1s.4477153-1 1-1h4c.5522847 0 1 .4477153 1 1s-.4477153 1-1 1z" fill="#7f8c8d"/><path id="Shape" d="m42 49h-4c-.5522847 0-1-.4477153-1-1s.4477153-1 1-1h4c.5522847 0 1 .4477153 1 1s-.4477153 1-1 1z" fill="#7f8c8d"/><path id="Shape" d="m38.19 44c-.1286055.7834058-.1921557 1.5761112-.19 2.37v4.63c-.0032948 1.1032019-.8967981 1.9967052-2 2h-12c-1.1032019-.0032948-1.9967052-.8967981-2-2v-4.63c.0021557-.7938888-.0613945-1.5865942-.19-2.37z" fill="#95a5a5"/><path id="Shape" d="m50 19.89c.0380183 5.8386011-2.4836127 11.4008075-6.9 15.22-2.6330334 2.2922288-4.3719519 5.4406983-4.91 8.89h-16.38c-.5141139-3.426794-2.2338505-6.5577782-4.85-8.83-6.99394437-6.0144315-8.96728251-16.0320636-4.7768563-24.249665 4.1904263-8.21760135 13.4575348-12.50335858 22.432874-10.37452521 8.9753391 2.12883336 15.3305228 10.11999451 15.3839823 19.34419021z" fill="#f3d55b"/><path id="Shape" d="m36 53c0 2.76-2.69 5-6 5s-6-2.24-6-5z" fill="#464f5d"/><path id="Shape" d="m34 14c-.5522847 0-1-.4477153-1-1v-4c0-.55228475.4477153-1 1-1s1 .44771525 1 1v4c0 .5522847-.4477153 1-1 1z" fill="#c03a2b"/><path id="Shape" d="m34 34c-.5522847 0-1-.4477153-1-1v-3c0-.5522847.4477153-1 1-1s1 .4477153 1 1v3c0 .5522847-.4477153 1-1 1z" fill="#c03a2b"/><path id="Shape" d="m42 16c-.5522847 0-1-.4477153-1-1v-2c0-.5522847.4477153-1 1-1s1 .4477153 1 1v2c0 .5522847-.4477153 1-1 1z" fill="#4c8056"/><path id="Shape" d="m42 28c-.5522847 0-1-.4477153-1-1v-3c0-.5522847.4477153-1 1-1s1 .4477153 1 1v3c0 .5522847-.4477153 1-1 1z" fill="#4c8056"/><path id="Shape" d="m26 13c-.5522847 0-1-.4477153-1-1v-5c0-.55228475.4477153-1 1-1s1 .44771525 1 1v5c0 .5522847-.4477153 1-1 1z" fill="#4c8056"/><path id="Shape" d="m26 23c-.5522847 0-1-.4477153-1-1v-4c0-.5522847.4477153-1 1-1s1 .4477153 1 1v4c0 .5522847-.4477153 1-1 1z" fill="#4c8056"/><path id="Shape" d="m18 17c-.5522847 0-1-.4477153-1-1v-3c0-.5522847.4477153-1 1-1s1 .4477153 1 1v3c0 .5522847-.4477153 1-1 1z" fill="#4c8056"/><path id="Shape" d="m18 29c-.5522847 0-1-.4477153-1-1v-5c0-.5522847.4477153-1 1-1s1 .4477153 1 1v5c0 .5522847-.4477153 1-1 1z" fill="#4c8056"/><g fill="#f29c1f"><path id="Shape" d="m1.439 26.036c-.51647123-.0031334-.94558814-.3990613-.99019637-.913612s.30996982-.9784199.81819637-1.070388l4.923-.868c.35810214-.0775795.72995715.0469008.96918202.3244385s.30750686.6636842.17796635 1.0064304-.43615714.5872002-.79914837.6371311l-4.924.869c-.05780232.0099543-.11634681.0149724-.175.015z"/><path id="Shape" d="m53.635 16.832c-.5166541-.0026333-.9462418-.3984113-.9911231-.9131191-.0448813-.5147077.3097221-.9788653.8181231-1.0708809l4.924-.869c.5363041-.080394 1.0389518.2813269 1.1330712.8153932.0941194.5340664-.2545939 1.045824-.7860712 1.1536068l-4.923.868c-.0577192.0106891-.1162994.016045-.175.016z"/><path id="Shape" d="m58.561 26.036c-.0586532-.0000276-.1171977-.0050457-.175-.015l-4.924-.869c-.3629912-.0499309-.6696079-.2943849-.7991484-.6371311s-.0612585-.7288927.1779664-1.0064304.6110799-.402018.969182-.3244385l4.923.868c.5082266.0919681.8628046.5558373.8181964 1.070388-.0446083.5145507-.4737252.9104786-.9901964.913612z"/><path id="Shape" d="m6.365 16.832c-.05870059.000045-.11728082-.0053109-.175-.016l-4.923-.868c-.35936534-.0538702-.66122559-.298444-.7884549-.6388234s-.05980156-.7229882.17612036-.9993689c.23592193-.2763807.60320352-.4030305.95933454-.3308077l4.924.869c.508401.0920156.8630044.5561732.81812312 1.0708809-.04488127.5147078-.47446897.9104858-.99112312.9131191z"/><path id="Shape" d="m4.887 35.5c-.45258806-.0000199-.84874105-.3040116-.96588095-.7411777s.07393969-.8985084.46588095-1.1248223l4.33-2.5c.47785996-.2716903 1.08542045-.1067416 1.3602745.3693057.2748541.4760473.1139391 1.0846885-.3602745 1.3626943l-4.33 2.5c-.15187005.0881308-.32441125.1343718-.5.134z"/><path id="Shape" d="m50.785 9c-.4525881-.00001991-.8487411-.30401157-.9658809-.74117767-.1171399-.43716609.0739396-.89850839.4658809-1.12482233l4.33-2.5c.47786-.27169029 1.0854205-.10674157 1.3602745.3693057.2748541.47604726.1139391 1.08468853-.3602745 1.3626943l-4.33 2.5c-.1518701.08813078-.3244113.13437182-.5.134z"/><path id="Shape" d="m55.113 35.5c-.1755887.0003718-.3481299-.0458692-.5-.134l-4.33-2.5c-.3119508-.1773616-.5049532-.5082732-.5057421-.8671183s.1907567-.6906021.5019247-.8693336c.3111679-.1787314.694247-.1770325 1.0038174.0044519l4.33 2.5c.3919413.2263139.5830208.6876562.4658809 1.1248223-.1171398.4371661-.5132928.7411578-.9658809.7411777z"/><path id="Shape" d="m9.215 9c-.17558875.00037182-.34812995-.04586922-.5-.134l-4.33-2.5c-.31195078-.17736158-.50495322-.50827321-.5057421-.8671183-.00078889-.35884509.19075673-.69060211.50192468-.86933356s.694247-.17703252 1.00381742.00445186l4.33 2.5c.3919413.22631394.5830208.68765624.4658809 1.12482233-.1171398.4371661-.51329284.74115776-.9658809.74117767z"/></g><rect id="Rectangle-path" fill="#e64c3c" height="17" rx="1" transform="matrix(-1 0 0 -1 68 43)" width="4" x="32" y="13"/><rect id="Rectangle-path" fill="#4fba6f" height="9" rx="1" transform="matrix(-1 0 0 -1 84 39)" width="4" x="40" y="15"/><rect id="Rectangle-path" fill="#4fba6f" height="6" rx="1" transform="matrix(-1 0 0 -1 52 30)" width="4" x="24" y="12"/><rect id="Rectangle-path" fill="#4fba6f" height="7" rx="1" transform="matrix(-1 0 0 -1 36 39)" width="4" x="16" y="16"/></g></g></svg>