<svg xmlns="http://www.w3.org/2000/svg" version="1.1" xmlns:xlink="http://www.w3.org/1999/xlink" xmlns:svgjs="http://svgjs.com/svgjs" width="512" height="512" x="0" y="0" viewBox="0 0 24 24" style="enable-background:new 0 0 512 512" xml:space="preserve" class=""><g><linearGradient id="a" x1="2.223" x2="21.777" y1="12" y2="12" gradientUnits="userSpaceOnUse"><stop stop-opacity="1" stop-color="#ff00d8" offset="0"></stop><stop stop-opacity="1" stop-color="#019dff" offset="0.481598609593091"></stop><stop stop-opacity="1" stop-color="#00ff51" offset="1"></stop></linearGradient><path fill="url(#a)" d="M20.8 5.5h-6c-.6 0-1 .4-1 1s.4 1 1 1h3.6l-5.2 5.6L9 10.5c-.4-.3-1-.2-1.3.2l-5.2 6.2c-.4.4-.3 1 .1 1.4.1.1.4.2.6.2.3 0 .6-.1.8-.4l4.6-5.4 4.2 2.5c.4.2.9.1 1.2-.2l5.8-6.1v3.6c0 .6.4 1 1 1 .5 0 1-.4 1-1v-6c0-.6-.4-1-1-1z" data-original="url(#a)"></path></g></svg>