<svg height="512" viewBox="0 0 56 58" width="512" xmlns="http://www.w3.org/2000/svg"><g id="Page-1" fill="none" fill-rule="evenodd"><g id="080---Upward-Trend" fill-rule="nonzero"><path id="Shape" d="m5 32c1.1045695 0 2 .8954305 2 2v8h-4v-8c0-1.1045695.8954305-2 2-2z" fill="#4c8056"/><path id="Shape" d="m19 22c1.1045695 0 2 .8954305 2 2v8h-4v-8c0-1.1045695.8954305-2 2-2z" fill="#4c8056"/><path id="Shape" d="m33 12c1.1045695 0 2 .8954305 2 2v8h-4v-8c0-1.1045695.8954305-2 2-2z" fill="#4c8056"/><g fill="#4fba6f"><rect id="Rectangle-path" height="18" rx="1" width="10" y="40"/><path id="Shape" d="m14 40v17c0 .5522847.4477153 1 1 1h8c.5522847 0 1-.4477153 1-1v-26c0-.5522847-.4477153-1-1-1h-8c-.5522847 0-1 .4477153-1 1z"/><path id="Shape" d="m29 20c-.5522847 0-1 .4477153-1 1v36c0 .5522847.4477153 1 1 1h8c.5522847 0 1-.4477153 1-1v-36c0-.5522847-.4477153-1-1-1z"/><path id="Shape" d="m55.34 10h-3.34v47c0 .5522847-.4477153 1-1 1h-8c-.5522847 0-1-.4477153-1-1v-47h-3.34c-.2671133-.00120883-.5074966-.1623607-.6100785-.40899388-.102582-.24663318-.0473882-.53072419.1400785-.72100612l8.37-8.68c.2595236-.25018137.6704764-.25018137.93 0l8.32 8.69c.1864607.18909466.2409743.47173971.1382136.71661641-.1027608.2448767-.34265.40397769-.6082136.40338359z"/></g></g></g></svg>